<?xml version="1.0" encoding="UTF-8"?>
<!DOCTYPE svg PUBLIC "-//W3C//DTD SVG 1.1//EN" "http://www.w3.org/Graphics/SVG/1.1/DTD/svg11.dtd">
<!-- Creator: CorelDRAW 2017 -->
<svg xmlns="http://www.w3.org/2000/svg" xml:space="preserve" width="210mm" height="297mm" version="1.1" style="shape-rendering:geometricPrecision; text-rendering:geometricPrecision; image-rendering:optimizeQuality; fill-rule:evenodd; clip-rule:evenodd"
viewBox="0 0 21000 29700"
 xmlns:xlink="http://www.w3.org/1999/xlink">
 <defs>
     <clipPath id="id0">
      <path d="M1717 25336c-248,-233 -479,-498 -682,-798 -170,-253 -320,-530 -440,-835 -121,-306 -214,-638 -269,-1001 -25,-163 -40,-320 -45,-472 -11,-305 16,-589 74,-852 69,-315 181,-601 324,-860 115,-209 251,-400 399,-575 33,-39 67,-77 101,-114 83,-90 169,-175 257,-256 80,-73 162,-143 245,-209 676,-536 1427,-836 1834,-972 187,-63 302,-91 302,-91 18,-10 47,-17 85,-23 105,-16 277,-21 455,-35 58,-5 117,-11 175,-18 166,-22 320,-58 413,-127 83,-62 118,-149 68,-275 -37,-92 127,-168 419,-206 122,-16 267,-24 429,-24 204,0 436,13 684,44 330,41 689,111 1052,220 306,92 616,210 913,361 333,169 652,377 934,632 85,77 167,158 246,244 86,94 168,194 244,299 32,44 62,88 92,134 133,205 247,430 336,677 110,305 182,644 207,1018 15,225 12,462 -9,714 -8,98 -19,193 -31,287 -22,170 -50,334 -83,492 -75,355 -179,680 -305,976 -125,294 -272,561 -437,802 -195,287 -414,539 -648,759 -283,267 -588,489 -899,674 -278,165 -560,300 -835,410 -327,131 -645,229 -933,301 -218,55 -419,95 -596,126 -140,24 -265,42 -370,56 -166,22 -285,33 -338,41 -30,5 -77,5 -137,1 -108,-8 -261,-31 -446,-73 -64,-15 -133,-31 -204,-51 -219,-59 -470,-140 -737,-249 -253,-103 -520,-229 -789,-383 -360,-206 -721,-461 -1054,-773z"/>
     </clipPath>
     <clipPath id="id1">
      <path d="M4094 18652c0,-12 14,-29 47,-50 98,-65 112,-325 83,-668 -27,-320 -90,-711 -157,-1081 -94,-518 -194,-995 -208,-1180 -8,-98 -48,-305 -103,-595 -77,-402 -185,-964 -278,-1618 -115,-804 -208,-1747 -198,-2704 4,-325 19,-651 50,-974 172,-1821 877,-2741 1529,-3605 95,-125 188,-250 279,-375 121,-168 237,-339 344,-518 197,-332 312,-632 443,-988 48,-129 102,-274 157,-422 38,-103 77,-208 115,-309 18,-49 36,-97 53,-143 31,-84 61,-163 88,-234 79,-210 133,-355 133,-355 112,0 224,0 336,0 46,0 91,0 137,0 101,0 202,0 303,0 13,30 26,60 40,91 29,67 59,134 88,201 24,54 47,108 71,162 16,37 32,74 49,111 -101,189 -204,366 -308,533 -177,283 -360,536 -543,771 -900,1150 -1878,1913 -2429,3353 -349,911 -431,1821 -412,2779 9,434 39,878 75,1336 29,371 62,750 90,1142 0,2 0,4 0,7 60,819 296,1875 548,2822 118,442 239,861 348,1221 155,513 285,906 342,1078 15,44 25,73 29,86 1,4 2,7 3,7 0,0 0,0 0,0 0,0 -11,2 -32,6 -68,13 -236,45 -422,76 -103,17 -212,33 -311,46 -206,26 -374,34 -376,-7z"/>
     </clipPath>
     <clipPath id="id2">
      <path d="M9589 8740c-193,-202 -392,-420 -598,-656 -156,-179 -303,-355 -440,-527 -110,-139 -215,-275 -313,-409 -115,-157 -222,-310 -322,-459 -246,-369 -446,-714 -603,-1026 -280,-555 -427,-1011 -472,-1327 -40,-282 1,-453 104,-485 21,-7 45,-7 72,-1 0,0 482,-184 1299,-298 772,-108 1842,-154 3089,74 270,49 548,111 833,189 460,125 861,265 1211,414 849,361 1403,774 1797,1135 286,262 488,497 659,666 51,50 99,95 145,133 72,58 140,100 210,122 82,25 178,122 289,272 140,189 304,463 490,783 209,358 446,774 711,1193 149,237 308,474 475,704 208,286 430,559 665,800 201,207 412,390 632,540 154,104 313,192 477,259 550,224 755,294 721,295 -42,1 -449,-105 -1024,-159 -172,-16 -359,-28 -556,-31 -459,-7 -972,35 -1470,178 -219,63 -451,112 -690,149 -1081,169 -2313,103 -3196,11 -478,-50 -853,-106 -1048,-138 -94,-15 -146,-24 -146,-23 0,2 -172,-66 -483,-255 -510,-310 -1394,-944 -2517,-2123z"/>
     </clipPath>
 </defs>
 <g id="Слой_x0020_3">
  <metadata id="CorelCorpID_0Corel-Layer"/>
  <g id="_1530740435104">
   <g>
    <g style="clip-path:url(#id0)">
     <image x="236" y="17553" width="10383" height="9356" xlink:href="Cherry_Images\Cherry_ImgID1.png"/>
    </g>
   </g>
   <g>
    <g style="clip-path:url(#id1)">
     <image x="3236" y="2791" width="4297" height="15932" xlink:href="Cherry_Images\Cherry_ImgID2.png"/>
    </g>
   </g>
   <g>
    <g style="clip-path:url(#id2)">
     <image x="6783" y="3423" width="13981" height="7992" xlink:href="Cherry_Images\Cherry_ImgID3.png"/>
    </g>
   </g>
  </g>
 </g>
</svg>
